<svg width="44" height="46" viewBox="0 0 44 46" fill="none" xmlns="http://www.w3.org/2000/svg">
<path id="Vector" fill-rule="evenodd" clip-rule="evenodd" d="M21.5176 6.22485e-05C21.514 0.00121897 21.5105 0.00239827 21.507 0.00359973C21.5011 0.00354077 21.4952 0.00354077 21.4893 0.00359973C21.3853 0.0110407 21.2836 0.0367873 21.1886 0.079652L0.74644 8.82213C0.536538 8.85527 0.345586 8.96288 0.208527 9.12527C0.0714675 9.28766 -0.00253292 9.49398 6.62102e-05 9.70646V36.2399C-0.000968792 36.3659 0.0249611 36.4908 0.0761181 36.606C0.0772748 36.6095 0.0784545 36.6131 0.079656 36.6166C0.0868413 36.6327 0.094509 36.6487 0.102649 36.6644C0.197677 36.8552 0.358474 37.0054 0.555425 37.0871L21.0135 45.8331C21.188 45.9589 21.4025 46.0167 21.6166 45.9958C21.7715 45.9876 21.9216 45.9388 22.0517 45.8543L42.5575 37.0871C42.7014 37.0286 42.8274 36.9332 42.9227 36.8105C43.018 36.6879 43.0793 36.5423 43.1005 36.3884C43.1033 36.3726 43.1057 36.3567 43.1076 36.3407C43.1091 36.3266 43.1103 36.3124 43.1111 36.2982C43.1115 36.2835 43.1115 36.2688 43.1111 36.254C43.1112 36.2493 43.1112 36.2446 43.1111 36.2399V9.70646C43.1134 9.49665 43.041 9.29285 42.9069 9.1315C42.7727 8.97015 42.5856 8.86175 42.3789 8.82567L21.9208 0.079652C21.9028 0.0707788 21.8845 0.06252 21.866 0.0548905C21.8636 0.0537008 21.8613 0.052522 21.8589 0.0513534C21.8327 0.0436422 21.8061 0.0371499 21.7793 0.0318979C21.7705 0.0294025 21.7617 0.0270441 21.7528 0.0248234C21.7329 0.019408 21.7129 0.0146889 21.6927 0.0106743C21.6838 0.00936141 21.675 0.008182 21.6661 0.00713679C21.6467 0.00531463 21.6273 0.00413514 21.6078 0.00359973C21.5778 0.000885788 21.5477 -0.000295021 21.5176 6.22485e-05ZM21.5547 1.84831L25.8897 3.7001L7.51687 11.5582C7.49891 11.5659 7.48122 11.5742 7.46381 11.583L3.12706 9.72769L21.5565 1.84831H21.5547ZM28.1394 4.66402L33.3994 6.91198L14.6835 14.9169C14.5106 14.9912 14.3659 15.1188 14.2704 15.281C14.175 15.4433 14.1338 15.6317 14.1529 15.8189C14.1497 15.853 14.1485 15.8873 14.1493 15.9215V25.3839L12.2321 22.5062C12.1126 22.3271 11.9319 22.1978 11.7238 22.1424C11.5158 22.0871 11.2946 22.1095 11.1019 22.2056L8.84336 23.334V12.9166L28.1394 4.66402ZM35.6492 7.87236L39.9877 9.72769L21.5565 17.6071L17.2215 15.7553L35.5979 7.89712C35.6158 7.88946 35.6335 7.8812 35.6509 7.87236H35.6492ZM1.76872 11.0683L7.0747 13.3375V24.7648C7.07471 24.9156 7.11328 25.0639 7.18674 25.1956C7.26021 25.3273 7.36614 25.438 7.49445 25.5173C7.62277 25.5965 7.76922 25.6416 7.91987 25.6483C8.07053 25.6549 8.22039 25.623 8.35521 25.5554L11.1921 24.1352L14.2484 28.7195C14.3454 28.9064 14.506 29.0526 14.7012 29.1316C14.7273 29.1417 14.7538 29.1506 14.7807 29.1582C14.7819 29.1594 14.7831 29.1605 14.7843 29.1617C14.8409 29.1781 14.8989 29.1887 14.9576 29.1935C14.987 29.1962 15.0165 29.1974 15.046 29.1971C15.0756 29.1974 15.1051 29.1962 15.1345 29.1935C15.1642 29.1892 15.1938 29.1833 15.2229 29.1759C15.2407 29.1717 15.2584 29.167 15.276 29.1617C15.286 29.1595 15.2961 29.1572 15.306 29.1546C15.5038 29.0924 15.6735 28.9627 15.7853 28.7881C15.8972 28.6136 15.9441 28.4052 15.918 28.1996V17.1242L20.6704 19.1546V43.7638L1.76872 35.681V11.0683ZM41.3425 11.0719V35.681L22.439 43.7673V19.1546L41.3425 11.0719ZM30.2406 31.3973C30.237 31.3984 30.2335 31.3996 30.23 31.4008C30.1201 31.4061 30.0121 31.4319 29.9116 31.4769L24.756 33.6806C24.5402 33.7726 24.3698 33.9465 24.2822 34.164C24.1947 34.3816 24.1971 34.6251 24.2891 34.8409C24.381 35.0566 24.5549 35.2271 24.7725 35.3146C24.9901 35.4022 25.2335 35.3997 25.4493 35.3078L30.6102 33.104C30.8061 33.0275 30.9683 32.8838 31.0677 32.6985C31.1671 32.5133 31.1973 32.2986 31.1528 32.0931C31.1083 31.8876 30.992 31.7047 30.8249 31.5772C30.6577 31.4497 30.4505 31.3859 30.2406 31.3973ZM35.3874 32.7238C35.2793 32.7298 35.1732 32.7555 35.0743 32.7998L29.9134 35.0036L24.756 37.2109C24.5402 37.3028 24.3698 37.4767 24.2822 37.6943C24.1947 37.9119 24.1971 38.1553 24.2891 38.3711C24.381 38.5869 24.5549 38.7573 24.7725 38.8449C24.9901 38.9324 25.2335 38.93 25.4493 38.838L30.6102 36.6308L35.7677 34.4235C35.9595 34.3435 36.1171 34.1985 36.2127 34.0139C36.3083 33.8293 36.3358 33.617 36.2904 33.4141C36.245 33.2113 36.1296 33.0309 35.9645 32.9047C35.7994 32.7784 35.595 32.7144 35.3874 32.7238Z" fill="#DD4400"/>
</svg>
