<svg width="22" height="22" viewBox="0 0 22 22" fill="none" xmlns="http://www.w3.org/2000/svg">
<path fill-rule="evenodd" clip-rule="evenodd" d="M0.927067 18.8503C0.681193 19.0962 0.533567 19.4201 0.516664 19.7509C0.499761 20.0818 0.614966 20.3923 0.836935 20.6143C1.0589 20.8362 1.36945 20.9515 1.70027 20.9345C2.03108 20.9176 2.35506 20.77 2.60094 20.5241L20.5242 2.60086C20.7701 2.35498 20.9177 2.031 20.9346 1.70019C20.9515 1.36938 20.8363 1.05882 20.6144 0.836855C20.3924 0.614886 20.0818 0.499683 19.751 0.516585C19.4202 0.533487 19.0962 0.681113 18.8504 0.926986L0.927067 18.8503Z" fill="#DD4400"/>
<path fill-rule="evenodd" clip-rule="evenodd" d="M2.60089 0.927067C2.35502 0.681193 2.03104 0.533567 1.70023 0.516664C1.36941 0.499761 1.05886 0.614966 0.836893 0.836935C0.614924 1.0589 0.499719 1.36945 0.516622 1.70027C0.533525 2.03108 0.681151 2.35506 0.927024 2.60094L18.8503 20.5242C19.0962 20.7701 19.4202 20.9177 19.751 20.9346C20.0818 20.9515 20.3923 20.8363 20.6143 20.6144C20.8363 20.3924 20.9515 20.0818 20.9346 19.751C20.9177 19.4202 20.7701 19.0962 20.5242 18.8504L2.60089 0.927067Z" fill="#DD4400"/>
</svg>
