<svg width="73" height="73" viewBox="0 0 73 73" fill="none" xmlns="http://www.w3.org/2000/svg">
<rect x="1" y="1" width="71" height="71" stroke="#DD4400" stroke-width="2"/>
<path d="M37.7539 37C37.7539 37.5523 37.3062 38 36.7539 38C36.2016 38 35.7539 37.5523 35.7539 37H37.7539ZM37.7539 14.8296V37H35.7539V14.8296H37.7539Z" fill="#DD4400"/>
<path d="M48.539 22.3237L37.3469 14.4084C37.0009 14.1636 36.5381 14.1636 36.1921 14.4084L25 22.3237" stroke="#DD4400" stroke-width="2" stroke-linecap="round"/>
<path d="M17.2773 57V46.2627H21.3057C22.126 46.2627 22.7827 46.3726 23.2759 46.5923C23.7739 46.8071 24.1621 47.1416 24.4404 47.5957C24.7236 48.0449 24.8652 48.5161 24.8652 49.0093C24.8652 49.4683 24.7407 49.9004 24.4917 50.3057C24.2427 50.7109 23.8667 51.0381 23.3638 51.2871C24.0132 51.4775 24.5112 51.8022 24.8579 52.2612C25.2095 52.7202 25.3853 53.2622 25.3853 53.8872C25.3853 54.3901 25.2778 54.8589 25.063 55.2935C24.853 55.7231 24.5918 56.0552 24.2793 56.2896C23.9668 56.5239 23.5737 56.7021 23.1001 56.8242C22.6313 56.9414 22.0552 57 21.3716 57H17.2773ZM18.6982 50.7744H21.02C21.6499 50.7744 22.1016 50.7329 22.375 50.6499C22.7363 50.5425 23.0073 50.3643 23.188 50.1152C23.3735 49.8662 23.4663 49.5537 23.4663 49.1777C23.4663 48.8213 23.3809 48.5088 23.21 48.2402C23.0391 47.9668 22.7949 47.7812 22.4775 47.6836C22.1602 47.5811 21.6157 47.5298 20.8442 47.5298H18.6982V50.7744ZM18.6982 55.7329H21.3716C21.8306 55.7329 22.1528 55.7158 22.3384 55.6816C22.6655 55.623 22.939 55.5254 23.1587 55.3887C23.3784 55.252 23.5591 55.0542 23.7007 54.7954C23.8423 54.5317 23.9131 54.229 23.9131 53.8872C23.9131 53.4868 23.8105 53.1401 23.6055 52.8472C23.4004 52.5493 23.1147 52.3418 22.7485 52.2246C22.3872 52.1025 21.8647 52.0415 21.1812 52.0415H18.6982V55.7329ZM27.1797 49.2217H30.2192C30.9663 49.2217 31.5205 49.2852 31.8818 49.4121C32.248 49.5342 32.5605 49.7612 32.8193 50.0933C33.083 50.4253 33.2148 50.8232 33.2148 51.2871C33.2148 51.6582 33.1367 51.9829 32.9805 52.2612C32.8291 52.5347 32.5996 52.7642 32.292 52.9497C32.6582 53.0718 32.9609 53.3013 33.2002 53.6382C33.4443 53.9702 33.5664 54.3657 33.5664 54.8247C33.5176 55.562 33.2539 56.1089 32.7754 56.4653C32.2969 56.8218 31.6011 57 30.688 57H27.1797V49.2217ZM28.498 52.4956H29.9043C30.4658 52.4956 30.8516 52.4663 31.0615 52.4077C31.2715 52.3491 31.4595 52.2319 31.6255 52.0562C31.7915 51.8755 31.8745 51.6606 31.8745 51.4116C31.8745 51.0015 31.728 50.7158 31.4351 50.5547C31.147 50.3936 30.6514 50.313 29.9482 50.313H28.498V52.4956ZM28.498 55.916H30.2339C30.981 55.916 31.4937 55.8306 31.772 55.6597C32.0503 55.4839 32.1968 55.1836 32.2114 54.7588C32.2114 54.5098 32.1309 54.2803 31.9697 54.0703C31.8086 53.8555 31.5986 53.7212 31.3398 53.6675C31.0811 53.6089 30.666 53.5796 30.0947 53.5796H28.498V55.916ZM40.29 54.4951L41.6523 54.6636C41.4375 55.4595 41.0396 56.0771 40.4585 56.5166C39.8774 56.9561 39.1353 57.1758 38.2319 57.1758C37.0942 57.1758 36.1909 56.8267 35.522 56.1284C34.8579 55.4253 34.5259 54.4414 34.5259 53.1768C34.5259 51.8682 34.8628 50.8525 35.5366 50.1299C36.2104 49.4072 37.0845 49.0459 38.1587 49.0459C39.1987 49.0459 40.0483 49.3999 40.7075 50.1079C41.3667 50.8159 41.6963 51.812 41.6963 53.0962C41.6963 53.1743 41.6938 53.2915 41.689 53.4478H35.8882C35.937 54.3022 36.1787 54.9565 36.6133 55.4106C37.0479 55.8647 37.5898 56.0918 38.2393 56.0918C38.7227 56.0918 39.1353 55.9648 39.4771 55.7109C39.8188 55.457 40.0898 55.0518 40.29 54.4951ZM35.9614 52.3638H40.3047C40.2461 51.7095 40.0801 51.2188 39.8066 50.8916C39.3867 50.3838 38.8423 50.1299 38.1733 50.1299C37.5679 50.1299 37.0576 50.3325 36.6426 50.7378C36.2324 51.1431 36.0054 51.6851 35.9614 52.3638ZM43.3149 59.981V49.2217H44.5161V50.2324C44.7993 49.8369 45.1191 49.5415 45.4756 49.3462C45.832 49.146 46.2642 49.0459 46.772 49.0459C47.436 49.0459 48.022 49.2168 48.5298 49.5586C49.0376 49.9004 49.4209 50.3838 49.6797 51.0088C49.9385 51.6289 50.0679 52.3101 50.0679 53.0522C50.0679 53.8481 49.9238 54.5659 49.6357 55.2056C49.3525 55.8403 48.9375 56.3286 48.3906 56.6704C47.8486 57.0073 47.2773 57.1758 46.6768 57.1758C46.2373 57.1758 45.8418 57.083 45.4902 56.8975C45.1436 56.7119 44.8579 56.4775 44.6333 56.1943V59.981H43.3149ZM44.5088 53.1548C44.5088 54.1558 44.7114 54.8955 45.1167 55.374C45.522 55.8525 46.0127 56.0918 46.5889 56.0918C47.1748 56.0918 47.6753 55.8452 48.0903 55.3521C48.5103 54.854 48.7202 54.085 48.7202 53.0449C48.7202 52.0537 48.5151 51.3115 48.105 50.8184C47.6997 50.3252 47.2139 50.0786 46.6475 50.0786C46.0859 50.0786 45.5879 50.3423 45.1533 50.8696C44.7236 51.3921 44.5088 52.1538 44.5088 53.1548ZM50.6099 57L53.4517 52.957L50.8223 49.2217H52.4702L53.6641 51.0454C53.8887 51.3921 54.0693 51.6826 54.2061 51.917C54.4209 51.5947 54.6187 51.3091 54.7993 51.0601L56.1104 49.2217H57.6851L54.9971 52.8838L57.8901 57H56.2715L54.6748 54.583L54.25 53.9312L52.2065 57H50.6099Z" fill="white"/>
</svg>
