<svg width="46" height="46" viewBox="0 0 46 46" fill="none" xmlns="http://www.w3.org/2000/svg">
<g id="Group 1000005196">
<path id="Vector" d="M45.5595 3.03173L38.8821 0.0639831C38.7872 0.0217977 38.6845 0 38.5807 0C38.4768 0 38.3741 0.0217977 38.2792 0.0639831L31.6018 3.03173C31.4606 3.09459 31.3426 3.19995 31.2641 3.33312C31.1856 3.46628 31.1507 3.62061 31.1641 3.77459L31.485 7.41935H2.59677C1.9083 7.42011 1.24824 7.69394 0.761418 8.18077C0.274593 8.66759 0.000760976 9.32765 0 10.0161V43.4032C0.000760976 44.0917 0.274593 44.7518 0.761418 45.2386C1.24824 45.7254 1.9083 45.9992 2.59677 46H35.9839C36.6724 45.9992 37.3324 45.7254 37.8192 45.2386C38.3061 44.7518 38.5799 44.0917 38.5807 43.4032V17.0645C38.7334 17.0644 38.8824 17.0171 39.0073 16.9291L44.9428 12.7557C45.0312 12.6937 45.105 12.6131 45.159 12.5195C45.2129 12.4259 45.2458 12.3217 45.2553 12.2141L45.9972 3.77459C46.0107 3.62061 45.9757 3.46628 45.8972 3.33312C45.8188 3.19995 45.7007 3.09459 45.5595 3.03173ZM12.6129 8.90322H25.9677V23.1734L19.6724 19.396C19.557 19.3269 19.4249 19.2903 19.2903 19.2903C19.1557 19.2903 19.0237 19.3269 18.9082 19.396L12.6129 23.1734V8.90322ZM37.0968 43.4032C37.0965 43.6983 36.9792 43.9812 36.7705 44.1899C36.5619 44.3986 36.279 44.5159 35.9839 44.5161H2.59677C2.30169 44.5159 2.01876 44.3986 1.8101 44.1899C1.60145 43.9812 1.48412 43.6983 1.48387 43.4032V10.0161C1.48412 9.72104 1.60145 9.43811 1.8101 9.22945C2.01876 9.02079 2.30169 8.90346 2.59677 8.90322H11.129V24.4839C11.129 24.6152 11.1638 24.7442 11.23 24.8577C11.2961 24.9712 11.3912 25.0651 11.5055 25.1298C11.6198 25.1945 11.7493 25.2277 11.8806 25.226C12.0119 25.2243 12.1405 25.1877 12.2531 25.1201L19.2903 20.8975L26.3276 25.1201C26.4402 25.1877 26.5687 25.2243 26.7001 25.226C26.8314 25.2277 26.9608 25.1945 27.0751 25.1298C27.1895 25.0651 27.2845 24.9712 27.3507 24.8577C27.4168 24.7442 27.4517 24.6152 27.4516 24.4839V8.90322H31.6148L31.906 12.2141C31.9155 12.3217 31.9484 12.4259 32.0024 12.5195C32.0563 12.6131 32.1301 12.6937 32.2186 12.7557L37.0968 16.1862V43.4032ZM43.8076 11.7402L38.5807 15.4156L33.3537 11.7402L32.6888 4.17245L38.5807 1.55342L44.4726 4.17245L43.8076 11.7402Z" fill="#DD4400"/>
<path id="Vector_2" d="M36.7667 8.84275C36.6856 8.78808 36.5946 8.74997 36.4987 8.73061C36.4029 8.71124 36.3042 8.71101 36.2083 8.72992C36.1124 8.74883 36.0211 8.78651 35.9398 8.8408C35.8585 8.89509 35.7887 8.96491 35.7345 9.04625C35.6803 9.12759 35.6426 9.21885 35.6238 9.31478C35.6049 9.41071 35.6052 9.50942 35.6247 9.60524C35.6441 9.70106 35.6822 9.79209 35.737 9.87311C35.7917 9.95412 35.8619 10.0235 35.9435 10.0773L38.1693 11.5612C38.333 11.6704 38.5334 11.71 38.7264 11.6714C38.9193 11.6329 39.089 11.5192 39.1982 11.3555L42.1659 6.90389C42.2206 6.82284 42.2587 6.73178 42.2781 6.63595C42.2974 6.54012 42.2977 6.44141 42.2788 6.34549C42.2598 6.24957 42.2222 6.15834 42.1679 6.07703C42.1136 5.99572 42.0438 5.92594 41.9624 5.87171C41.8811 5.81747 41.7898 5.77985 41.6939 5.76099C41.598 5.74214 41.4993 5.74244 41.4034 5.76186C41.3076 5.78128 41.2166 5.81945 41.1356 5.87417C41.0546 5.92889 40.9852 5.99908 40.9314 6.08071L38.3751 9.91503L36.7667 8.84275Z" fill="#DD4400"/>
<path id="Vector_3" d="M17.066 32.645H3.71117C3.5144 32.645 3.32569 32.7232 3.18655 32.8623C3.04741 33.0015 2.96924 33.1902 2.96924 33.387V42.2902C2.96924 42.487 3.04741 42.6757 3.18655 42.8148C3.32569 42.954 3.5144 43.0321 3.71117 43.0321H17.066C17.2628 43.0321 17.4515 42.954 17.5906 42.8148C17.7298 42.6757 17.808 42.487 17.808 42.2902V33.387C17.808 33.1902 17.7298 33.0015 17.5906 32.8623C17.4515 32.7232 17.2628 32.645 17.066 32.645ZM16.3241 41.5482H4.45311V34.1289H16.3241V41.5482Z" fill="#DD4400"/>
<path id="Vector_4" d="M6.67797 37.0972H14.0973C14.2941 37.0972 14.4828 37.019 14.622 36.8798C14.7611 36.7407 14.8393 36.552 14.8393 36.3552C14.8393 36.1584 14.7611 35.9697 14.622 35.8306C14.4828 35.6914 14.2941 35.6133 14.0973 35.6133H6.67797C6.4812 35.6133 6.29248 35.6914 6.15334 35.8306C6.0142 35.9697 5.93604 36.1584 5.93604 36.3552C5.93604 36.552 6.0142 36.7407 6.15334 36.8798C6.29248 37.019 6.4812 37.0972 6.67797 37.0972Z" fill="#DD4400"/>
<path id="Vector_5" d="M6.67797 40.0649H14.0973C14.2941 40.0649 14.4828 39.9868 14.622 39.8476C14.7611 39.7085 14.8393 39.5198 14.8393 39.323C14.8393 39.1262 14.7611 38.9375 14.622 38.7984C14.4828 38.6592 14.2941 38.5811 14.0973 38.5811H6.67797C6.4812 38.5811 6.29248 38.6592 6.15334 38.7984C6.0142 38.9375 5.93604 39.1262 5.93604 39.323C5.93604 39.5198 6.0142 39.7085 6.15334 39.8476C6.29248 39.9868 6.4812 40.0649 6.67797 40.0649Z" fill="#DD4400"/>
</g>
</svg>
