<svg width="37" height="38" viewBox="0 0 37 38" fill="none" xmlns="http://www.w3.org/2000/svg">
<rect x="0.625" width="35.625" height="37.8516" fill="#DD4400"/>
<g clip-path="url(#clip0_2_3680)">
<path d="M31.945 7.84252C31.9233 7.74288 31.8756 7.65078 31.8067 7.57562C31.7377 7.50047 31.6501 7.44495 31.5527 7.41474C31.1982 7.34481 30.8314 7.37103 30.4904 7.49067C30.4904 7.49067 6.8342 15.9931 5.48335 16.9348C5.19142 17.1373 5.09439 17.2545 5.04629 17.3938C4.81257 18.0637 5.53989 18.359 5.53989 18.359L11.6368 20.346C11.7398 20.3639 11.8455 20.3575 11.9456 20.3275C13.3328 19.4517 25.9004 11.5154 26.6269 11.2487C26.7408 11.2141 26.8252 11.2487 26.8066 11.3331C26.5096 12.3507 15.6564 21.9956 15.5965 22.0546C15.5674 22.0785 15.5445 22.1091 15.5298 22.1438C15.5151 22.1785 15.5091 22.2162 15.5122 22.2538L14.9452 28.203C14.9452 28.203 14.7072 30.0593 16.5601 28.203C17.8738 26.8876 19.1344 25.7992 19.7664 25.2702C21.8631 26.7172 24.1193 28.3178 25.0921 29.1514C25.2553 29.31 25.4488 29.434 25.6611 29.516C25.8733 29.5981 26.0999 29.6365 26.3274 29.629C27.2555 29.5935 27.5086 28.5785 27.5086 28.5785C27.5086 28.5785 31.8185 11.2352 31.9636 8.91071C31.9771 8.68289 31.9965 8.53692 31.9982 8.38083C32.0059 8.19979 31.988 8.01856 31.945 7.84252Z" fill="white"/>
</g>
<defs>
<clipPath id="clip0_2_3680">
<rect width="27" height="27" fill="white" transform="translate(5 5)"/>
</clipPath>
</defs>
</svg>
