<svg width="205" height="80" viewBox="0 0 205 80" fill="none" xmlns="http://www.w3.org/2000/svg">
<path d="M140.355 20.0566C133.156 20.7516 127.408 25.9454 126.165 32.8831C125.867 34.6017 125.984 37.6725 126.424 39.2647C127.796 44.231 131.24 48.0474 136.018 49.8671C140.148 51.4467 144.925 51.2445 148.848 49.349C152.694 47.4787 155.866 43.8014 156.966 39.9092C157.135 39.3532 157.29 38.8856 157.329 38.8856C157.368 38.8856 157.523 39.3532 157.691 39.9218C157.847 40.4779 158.261 41.5267 158.611 42.2217C160.799 46.6447 165.007 49.766 170.043 50.7011C171.48 50.9665 175.312 51.0676 179.261 50.9539L182.485 50.8654L179.339 47.7946L176.193 44.7239L173.72 44.6607C170.975 44.5975 170.276 44.4711 168.774 43.7508C166.301 42.5756 164.411 40.3388 163.712 37.7483C163.414 36.6362 163.414 34.311 163.712 33.199C164.553 30.0524 167 27.6008 170.276 26.6152C171.674 26.1855 174.07 26.1855 175.455 26.6152C176.737 27.0069 177.695 27.4871 178.756 28.2832L179.624 28.9277L181.812 26.8047C183.016 25.6295 184 24.6059 184 24.5301C184 24.3026 182.291 22.9631 181.087 22.2554C176.076 19.2731 169.719 19.2605 164.709 22.2049C161.317 24.1889 158.546 27.7146 157.627 31.2024C157.497 31.6826 157.368 32.0617 157.329 32.0617C157.29 32.0617 157.135 31.5941 156.966 31.0254C155.672 26.4888 151.839 22.5461 147.126 20.8906C145.158 20.2082 142.362 19.8544 140.355 20.0566ZM144.446 26.6278C147.139 27.4492 149.172 29.1552 150.337 31.6194C151.024 33.0347 151.179 33.7803 151.179 35.5368C151.179 36.7626 151.114 37.2428 150.868 38.001C149.845 41.2234 147.398 43.5486 144.123 44.4079C142.983 44.6986 140.601 44.6986 139.462 44.4079C136.846 43.7382 134.477 41.83 133.325 39.4795C132.626 38.0642 132.418 37.1291 132.418 35.4736C132.418 33.8182 132.626 32.8831 133.312 31.4804C134.361 29.3574 136.354 27.5882 138.607 26.7921C140.316 26.1855 142.763 26.1223 144.446 26.6278Z" fill="black"/>
<path d="M28.4336 20.0792C27.6507 20.1934 26.0848 20.6247 25.1992 20.9927C22.4654 22.1091 20.168 24.4054 19.3594 26.8413C18.9872 27.9705 18.8973 29.9496 19.1797 31.0407C20.2963 35.4558 25.0709 38.6275 30.6155 38.6402C34.0039 38.6529 36.3527 40.6701 35.3131 42.6873C34.5173 44.2224 31.3599 45.1359 28.7288 44.5903C27.0859 44.2478 25.5329 43.1187 25.3404 42.1164L25.2634 41.685H22.1317H19V42.2306C19 43.6769 19.9626 45.859 21.1819 47.1658C24.2109 50.4517 29.1523 51.7584 33.9526 50.5659C34.5173 50.4136 35.6211 49.995 36.3912 49.6144C38.5988 48.5233 40.1646 47.0516 41.0759 45.1739C41.5765 44.1336 41.9743 42.6112 41.9743 41.685C41.9743 40.7589 41.5765 39.2365 41.0759 38.1961C40.1518 36.2931 38.4704 34.7199 36.2628 33.6796C34.6071 32.893 33.3237 32.5758 31.2573 32.4109C28.8956 32.2333 28.1897 32.1064 27.2913 31.6877C25.5714 30.8758 24.904 29.6071 25.5458 28.3765C26.7009 26.1309 31.668 25.4838 34.2734 27.2346C34.9537 27.6914 35.5569 28.5033 35.5569 28.9601V29.2519H38.7785H42L41.9102 28.5287C41.6535 26.4861 40.8577 24.9383 39.2277 23.3524C37.5206 21.6778 35.7109 20.7516 33.1825 20.2314C32.0915 20.0031 29.5502 19.927 28.4336 20.0792Z" fill="black"/>
<path d="M43 35.5V51H46.0557H49.1114V46.4146C49.1114 43.8958 49.1496 41.8292 49.2133 41.8292C49.2642 41.8292 51.3395 43.8958 53.8223 46.4146L58.3422 51H62.6711H67L59.3607 43.25L51.7215 35.5L59.3607 27.75L67 20H62.6711H58.3422L53.8223 24.5854C51.3395 27.1042 49.2642 29.1708 49.2133 29.1708C49.1496 29.1708 49.1114 27.1042 49.1114 24.5854V20H46.0557H43V35.5Z" fill="black"/>
<path d="M68 35.5065V51H81.9148H95.8295V43.292V35.571L98.8315 38.5793C102.284 42.0396 101.911 41.8459 103.972 41.1358C107.258 40.0125 109.603 37.6626 110.723 34.3703L111.162 33.1179V42.0525V51H122.074H133L129.908 47.9013L126.816 44.8026H122.152H117.475V32.4077V20.0129H114.318H111.162L111.149 24.364C111.149 28.3794 111.136 28.6764 110.955 28.0437C110.105 24.8417 107.657 22.0787 104.616 20.8392C102.735 20.0775 102.851 20.0904 95.997 20.0387L89.6452 20V35.4677V50.9354L86.5788 47.8626L83.5253 44.8026H78.8484H74.1843V40.2191C74.1843 37.7014 74.2745 35.6356 74.2745 35.6356V30.9423L74.1843 26.2103H80.3687H86.553V23.1116V20.0129H77.2765H68V35.5065ZM102.168 26.5848C103.186 26.985 104.101 27.8372 104.616 28.8959C104.99 29.6576 105.042 29.8771 105.042 30.8584C105.042 31.788 104.99 32.0721 104.681 32.7305C104.217 33.7376 103.341 34.6156 102.349 35.0804C101.576 35.4419 101.524 35.4419 98.7027 35.4806L95.8295 35.5194V30.8584V26.1845L98.6383 26.2362C101.151 26.2878 101.511 26.3136 102.168 26.5848Z" fill="black"/>
<path d="M175.587 37.4879V40.5796H177.159H178.744L181.861 43.6972L184.992 46.8276V40.6054V34.3961H180.289H175.587V37.4879Z" fill="#DD4400"/>
<path d="M19.6198 56.0516C18.499 56.3865 17.8292 57.8036 18.1512 59.1563C18.4604 60.496 19.1174 61.0757 20.3541 61.0886C21.243 61.0886 21.8742 60.7408 22.2607 60.0194L22.557 59.4526L22.2221 59.3495C22.0288 59.2851 21.8742 59.2593 21.8614 59.2722C21.8485 59.298 21.7454 59.4912 21.6424 59.7102C21.5393 59.9292 21.2172 60.2126 20.9467 60.3414C20.4829 60.5604 20.3928 60.5733 19.929 60.4059C19.2333 60.1611 18.9113 59.6844 18.834 58.8084C18.7309 57.4815 19.3493 56.554 20.3541 56.554C20.8952 56.554 21.4362 56.8503 21.6166 57.2625C21.7454 57.5331 21.8356 57.5846 22.0675 57.5073C22.2221 57.4687 22.3767 57.4042 22.4024 57.3785C22.4926 57.3012 21.9515 56.5154 21.6424 56.2706C21.2559 55.9872 20.1995 55.8712 19.6198 56.0516Z" fill="black"/>
<path d="M113.559 56.1417C112.657 56.5668 112.206 57.3527 112.206 58.4863C112.206 60.0451 113.159 61.0757 114.589 61.0757C116.135 61.0757 117.089 59.9163 116.934 58.2158C116.818 56.8631 116.045 56.0773 114.757 55.9614C114.254 55.9098 113.932 55.9614 113.559 56.1417ZM115.646 56.9919C116.109 57.4042 116.135 57.4686 116.174 58.3833C116.212 59.2077 116.187 59.3752 115.916 59.7746C115.736 60.0322 115.414 60.2899 115.117 60.4058C114.692 60.5733 114.551 60.5733 114.1 60.4058C113.314 60.1353 112.979 59.5684 112.979 58.4992C112.992 58.0354 113.056 57.5201 113.159 57.3527C113.417 56.876 114.01 56.5539 114.628 56.5539C115.066 56.5539 115.259 56.6312 115.646 56.9919Z" fill="black"/>
<path d="M148.831 56.0515C147.182 56.5282 146.692 59.285 148.032 60.5089C149.127 61.5137 151.111 61.1659 151.742 59.8647C152.245 58.8342 152.013 57.1723 151.291 56.5282C150.673 55.9742 149.72 55.7939 148.831 56.0515ZM150.467 56.7601C151.472 57.3656 151.626 59.2593 150.737 60.058C149.964 60.7536 148.805 60.599 148.277 59.7488C148.058 59.401 148.019 59.1562 148.045 58.3961C148.083 57.6232 148.135 57.4171 148.406 57.1337C148.972 56.5282 149.81 56.3736 150.467 56.7601Z" fill="black"/>
<path d="M163.543 56.0643C163.027 56.2447 162.46 56.7857 162.241 57.2882C161.958 57.958 162.01 59.2334 162.357 59.9033C162.705 60.5861 163.143 60.9339 163.865 61.0627C164.908 61.256 165.797 60.8437 166.235 59.9806C166.493 59.4524 166.48 59.4138 166.093 59.3622C165.9 59.3365 165.72 59.4653 165.514 59.7745C164.702 60.9725 163.221 60.6762 162.834 59.2592C162.615 58.4733 162.783 57.52 163.208 57.0434C163.491 56.7213 163.684 56.6312 164.225 56.5796C164.818 56.5281 164.921 56.5539 165.256 56.8888C165.462 57.0949 165.655 57.3397 165.681 57.417C165.746 57.6231 166.312 57.4814 166.312 57.2624C166.312 56.979 165.642 56.2704 165.192 56.0901C164.702 55.884 164.097 55.8711 163.543 56.0643Z" fill="black"/>
<path d="M23.5489 58.19L23.5103 60.3542L23.1625 60.3929C22.8791 60.4315 22.8018 60.5088 22.8018 60.7407C22.8018 61.2818 23.7035 61.2431 24.0642 60.702C24.2317 60.4315 24.2961 59.9806 24.3219 58.5249L24.3734 56.6827H25.1979H26.0224V58.8727V61.0628H26.4088H26.7953V58.5507V56.0386H25.185H23.5747L23.5489 58.19Z" fill="black"/>
<path d="M27.5684 56.1031C27.5684 56.1547 28.0064 57.0049 28.5603 57.984L29.5394 59.7875L29.2817 60.1353C29.0627 60.4187 28.921 60.4832 28.5345 60.4574C28.1223 60.4316 28.0708 60.4574 28.1094 60.715C28.1352 60.9212 28.2511 61.0113 28.5217 61.0371C29.359 61.1402 29.4363 61.0629 30.5829 58.7698C31.9226 56.0774 31.9355 56.0387 31.4975 56.0387C31.227 56.0387 31.1239 56.1418 30.9307 56.5798C30.789 56.889 30.4927 57.5588 30.2479 58.087L29.8099 59.0403L29.0241 57.5717C28.3671 56.3221 28.1996 56.1031 27.9033 56.0645C27.7229 56.0387 27.5684 56.0645 27.5684 56.1031Z" fill="black"/>
<path d="M32.1028 56.322C32.1286 56.541 32.2445 56.6312 32.5022 56.6569C32.7856 56.6956 32.9273 56.8373 33.1849 57.3655C33.3782 57.7391 33.6229 58.1513 33.7389 58.2801C33.8935 58.4605 33.9063 58.5378 33.7775 58.5764C33.6229 58.6408 32.9788 59.5297 32.3476 60.5732L32.0513 61.0627H32.5022C32.9144 61.0627 32.9917 60.9983 33.4941 60.1481C34.0996 59.1175 34.4345 58.7439 34.7179 58.7439C34.8725 58.7439 34.9112 58.9629 34.9112 59.9033V61.0627H35.2976H35.6841V59.9033C35.6841 58.9758 35.7228 58.7439 35.8774 58.7439C36.135 58.7439 36.5344 59.1948 37.127 60.1867C37.6036 60.9983 37.6809 61.0627 38.0931 61.0627H38.544L38.2477 60.5732C37.6165 59.5297 36.9724 58.6408 36.8178 58.5764C36.689 58.5378 36.7018 58.4605 36.8564 58.2801C36.9724 58.1513 37.2171 57.7391 37.4104 57.3655C37.668 56.8373 37.8097 56.6956 38.0931 56.6569C38.3508 56.6312 38.4667 56.541 38.4925 56.322C38.5311 56.0772 38.4796 56.0386 38.106 56.0386C37.4877 56.0386 37.1398 56.3349 36.7018 57.2753C36.4828 57.7262 36.2638 58.0998 36.1994 58.0998C36.135 58.0998 36.0062 58.1384 35.8902 58.1771C35.7099 58.2415 35.6841 58.0998 35.6841 57.1465V56.0386H35.2976H34.9112V57.1465C34.9112 58.0998 34.8854 58.2415 34.7051 58.1771C34.5891 58.1384 34.4603 58.0998 34.3959 58.0998C34.3315 58.0998 34.1125 57.7262 33.8935 57.2753C33.4555 56.3349 33.1076 56.0386 32.4893 56.0386C32.1157 56.0386 32.0642 56.0772 32.1028 56.322Z" fill="black"/>
<path d="M39.2915 58.5637V61.0886L40.6957 61.0371C41.8809 61.0113 42.1643 60.9598 42.4735 60.7279C43.182 60.1997 43.182 58.963 42.4864 58.4477C42.2158 58.2416 41.868 58.1643 41.0306 58.1257L39.9356 58.0612V57.3785V56.6828H41.2239H42.5121V56.3608V56.0387H40.9018H39.2915V58.5637ZM41.9711 58.9501C42.1643 59.079 42.2545 59.2722 42.2545 59.5814C42.2545 60.2126 41.8938 60.4187 40.8116 60.4187H39.9356V59.5814V58.744H40.8116C41.3913 58.744 41.7778 58.8084 41.9711 58.9501Z" fill="black"/>
<path d="M45.1655 56.1416C45.0882 56.2705 43.2847 60.9339 43.2847 61.0112C43.2847 61.037 43.4521 61.0627 43.6454 61.0627C43.9674 61.0627 44.0318 60.9854 44.2766 60.3156L44.5343 59.5813L45.5649 59.5426L46.5955 59.504L46.8918 60.2898C47.1494 60.9854 47.2138 61.0627 47.5488 61.0627C47.7549 61.0627 47.9223 61.0241 47.9223 60.9726C47.9223 60.9082 47.4715 59.7874 46.9304 58.4605C45.99 56.1416 45.9256 56.0386 45.5906 56.0386C45.3974 56.0386 45.2042 56.0901 45.1655 56.1416ZM45.9771 57.855C46.1961 58.4218 46.3765 58.9243 46.3765 58.95C46.3765 58.9758 46.0286 59.0016 45.6035 59.0016C45.1784 59.0016 44.8306 58.9629 44.8306 58.9114C44.8306 58.8083 45.5262 56.8115 45.5649 56.8115C45.5777 56.8115 45.7581 57.2753 45.9771 57.855Z" fill="black"/>
<path d="M51.607 56.9017C51.9419 57.3912 52.3284 57.9194 52.4572 58.0869C52.6762 58.3832 52.6762 58.3961 52.1738 59.1175C51.8904 59.5169 51.4395 60.1094 51.1947 60.4444L50.731 61.0627H51.169C51.5554 61.0627 51.6585 60.9726 52.3155 60.0321C53.14 58.8727 53.0112 58.847 53.9773 60.2511C54.4797 60.9854 54.5699 61.0627 54.9822 61.0627C55.3171 61.0627 55.3944 61.0241 55.3042 60.8953C54.673 60.0708 53.5909 58.4863 53.5909 58.3832C53.5909 58.3188 53.9645 57.7648 54.4282 57.1594L55.2785 56.0386H54.8533C54.4797 56.0515 54.3509 56.1545 53.7583 56.9532L53.1013 57.855L52.4701 56.9532C51.9161 56.1288 51.8131 56.0386 51.4266 56.0386H50.9886L51.607 56.9017Z" fill="black"/>
<path d="M56.0643 58.5121L56.103 60.9984L56.4637 61.037L56.8115 61.0757V60.058V59.0274L57.9838 58.9758C59.1175 58.9372 59.169 58.9243 59.5297 58.5121C60.1481 57.8164 59.9806 56.5411 59.1948 56.1932C59.0015 56.1031 58.2672 56.0386 57.4428 56.0386H56.0386L56.0643 58.5121ZM59.0015 56.9404C59.2978 57.2367 59.3236 57.4815 59.1175 57.8808C58.8856 58.306 58.7568 58.3575 57.7519 58.3575H56.8115V57.5201V56.6828H57.7777C58.5764 56.6828 58.7954 56.7343 59.0015 56.9404Z" fill="black"/>
<path d="M61.6937 56.3864C61.6164 56.5925 61.2428 57.5587 60.8692 58.5507C60.4956 59.5426 60.1221 60.5088 60.0448 60.702C59.9159 61.0499 59.9288 61.0627 60.2766 61.0627C60.6116 61.0627 60.676 60.9854 60.9336 60.2898L61.2299 59.504L62.2477 59.5426L63.2783 59.5813L63.5617 60.2898C63.7935 60.8824 63.9095 61.0112 64.1929 61.037C64.3861 61.0627 64.5407 61.0112 64.5407 60.9339C64.5407 60.8566 64.2187 59.9935 63.8193 59.0273C62.5311 55.8711 62.6212 56.0386 62.209 56.0386C61.9127 56.0386 61.7968 56.1159 61.6937 56.3864ZM62.6599 57.9065C62.8402 58.409 62.9948 58.8598 62.9948 58.9114C62.9948 58.9629 62.647 59.0016 62.209 59.0016C61.6293 59.0016 61.4361 58.9629 61.4876 58.8341C61.5134 58.7568 61.6808 58.2673 61.8483 57.752C62.0158 57.2495 62.1961 56.8759 62.2348 56.9146C62.2863 56.9661 62.4667 57.417 62.6599 57.9065Z" fill="black"/>
<path d="M65.314 58.5636V61.0757L65.6747 61.037C66.0225 60.9984 66.0225 60.9984 66.0611 59.8647L66.0998 58.744H67.3107H68.5346V59.9034V61.0628H68.9211H69.3075V58.5507V56.0386H68.9211H68.5346V57.0692V58.0998H67.3107H66.0869V57.0692V56.0386H65.7004H65.314V58.5636Z" fill="black"/>
<path d="M70.4926 58.512L70.5312 60.9983H72.3992C74.2414 60.9983 74.2671 60.9983 74.3058 60.702C74.3444 60.4186 74.3315 60.4186 72.7985 60.4186H71.2397V59.5812V58.7439H72.5924H73.9451V58.4218V58.0997H72.5924H71.2397V57.3912V56.6827H72.7212H74.2027V56.3606V56.0385H72.3348H70.4668L70.4926 58.512Z" fill="black"/>
<path d="M75.3623 58.5636V61.0757L75.723 61.037C76.0708 60.9984 76.0708 60.9984 76.1095 59.8647L76.1481 58.744H77.3591H78.5829V59.9034V61.0628H78.9694H79.3559V58.5507V56.0386H78.9694H78.5829V57.0692V58.0998H77.3591H76.1353V57.0692V56.0386H75.7488H75.3623V58.5636Z" fill="black"/>
<path d="M80.5409 58.512L80.5795 60.9983L80.9016 61.037C81.1979 61.0756 81.3783 60.8566 82.5119 59.1819L83.8002 57.3011L83.8388 59.1819L83.8775 61.0627H84.1866H84.5087V58.5507V56.0386H84.1609C83.8388 56.0386 83.6456 56.2705 82.5119 57.9452L81.2237 59.8389L81.185 57.9323L81.1464 56.0386H80.8372H80.5151L80.5409 58.512Z" fill="black"/>
<path d="M86.5056 56.1546C85.3977 56.6184 85.5008 58.3833 86.6602 58.6795L86.9951 58.7568L86.7246 59.0145C86.4927 59.2206 85.694 60.3285 85.359 60.8953C85.2946 61.0242 85.3977 61.0628 85.7198 61.0628C86.1191 61.0628 86.2093 60.9984 86.6988 60.2254C87.4718 58.9887 87.6135 58.8728 88.3735 58.8728H89.0177V59.9807V61.0757L89.3784 61.037L89.7262 60.9984L89.7648 58.5121L89.7906 56.0386L88.2834 56.0515C87.446 56.0515 86.6473 56.1031 86.5056 56.1546ZM89.0177 57.4557V58.2287H88.103C86.9307 58.2287 86.4541 57.9839 86.4412 57.4042C86.4412 56.8502 86.8019 56.6828 87.9484 56.6828H89.0177V57.4557Z" fill="black"/>
<path d="M93.1401 56.0901C93.1401 56.1288 93.5781 56.9404 94.1063 57.9065C94.6345 58.8598 95.0725 59.6972 95.0725 59.7616C95.0725 59.8131 94.9437 60.0321 94.802 60.2254C94.5701 60.5088 94.4413 60.5603 94.1579 60.4959C93.8229 60.4315 93.7843 60.4573 93.7843 60.7407C93.7843 61.037 93.8358 61.0627 94.3511 61.0627C95.0725 61.0627 95.1112 61.0112 96.4638 58.19L97.5073 56.0386H97.1466C96.8116 56.0386 96.7343 56.1545 96.0902 57.533L95.3946 59.0273L94.6216 57.5716C93.9517 56.2962 93.7971 56.103 93.5008 56.0644C93.2947 56.0386 93.1401 56.0515 93.1401 56.0901Z" fill="black"/>
<path d="M98.1898 58.5121L98.2285 60.9984L98.5892 61.037L98.937 61.0757V58.8857V56.6828H100.161H101.385L101.41 58.8341L101.449 60.9984L101.81 61.037L102.158 61.0757V58.5636V56.0386H100.161H98.1641L98.1898 58.5121Z" fill="black"/>
<path d="M104.541 56.5797C103.961 58.0354 102.931 60.818 102.931 60.9469C102.931 61.0113 103.085 61.0628 103.278 61.037C103.575 60.9984 103.652 60.8953 103.871 60.2512L104.116 59.504L105.159 59.5427L106.203 59.5813L106.473 60.2899C106.718 60.9211 106.783 60.9984 107.156 61.037L107.568 61.0757L107.324 60.4573C105.623 56.2319 105.559 56.1031 105.159 56.0644C104.812 56.0258 104.747 56.0773 104.541 56.5797ZM105.894 58.8986C105.894 58.9501 105.546 59.0016 105.121 59.0016C104.696 59.0016 104.348 58.9758 104.348 58.9501C104.348 58.9243 104.489 58.4992 104.67 58.0225C104.85 57.533 105.031 57.0435 105.069 56.9404C105.134 56.7729 105.894 58.5894 105.894 58.8986Z" fill="black"/>
<path d="M108.212 58.5636V61.0757L108.573 61.037C108.921 60.9984 108.921 60.9984 108.96 59.8647C109.011 58.2931 109.269 58.3704 110.441 60.277C110.853 60.9597 110.969 61.0628 111.304 61.0628C111.523 61.0628 111.691 61.0242 111.691 60.9726C111.691 60.7923 110.531 59.0531 110.222 58.7568C109.99 58.5378 109.939 58.409 110.029 58.3446C110.119 58.2931 110.364 57.9195 110.583 57.5072C110.905 56.9018 111.047 56.7343 111.343 56.7085C111.613 56.6699 111.691 56.5926 111.691 56.3478C111.691 56.0773 111.626 56.0386 111.24 56.0386C110.673 56.0386 110.364 56.3349 109.964 57.2496C109.694 57.8422 109.346 58.2287 109.063 58.2287C109.024 58.2287 108.985 57.7391 108.985 57.1337V56.0386H108.599H108.212V58.5636Z" fill="black"/>
<path d="M118.003 58.5378V61.0627H119.137C121.03 61.0627 121.584 60.7793 121.7 59.723C121.765 59.1948 121.726 59.1046 121.365 58.731L120.953 58.3188L121.211 58.0483C121.584 57.6489 121.571 56.9275 121.172 56.4637C120.876 56.1159 120.811 56.103 119.433 56.0644L118.003 56.0128V58.5378ZM120.605 56.9017C120.734 57.0177 120.837 57.2367 120.837 57.4041C120.837 57.8679 120.373 58.0998 119.459 58.0998H118.647V57.3912V56.6827H119.51C120.129 56.6827 120.438 56.7471 120.605 56.9017ZM120.682 58.95C120.876 59.0788 120.966 59.2721 120.966 59.5813C120.966 60.2125 120.605 60.4186 119.523 60.4186H118.647V59.5813V58.7439H119.523C120.103 58.7439 120.489 58.8083 120.682 58.95Z" fill="black"/>
<path d="M122.795 58.5121L122.834 60.9984L123.195 61.037L123.542 61.0757V59.9163C123.542 59.0274 123.581 58.744 123.71 58.744C123.955 58.744 124.457 59.3366 125.011 60.2512C125.462 60.9984 125.526 61.0628 125.939 61.0628C126.274 61.0628 126.364 61.0242 126.299 60.8953C125.681 59.8647 124.818 58.628 124.676 58.5894C124.534 58.5378 124.547 58.4863 124.702 58.306C124.805 58.1771 125.037 57.7778 125.217 57.4042C125.475 56.876 125.617 56.7343 125.926 56.6828C126.209 56.6312 126.325 56.5411 126.351 56.3221C126.389 56.0773 126.338 56.0386 125.964 56.0386C125.359 56.0386 125.011 56.3221 124.573 57.1981C124.238 57.8551 123.89 58.2287 123.62 58.2287C123.581 58.2287 123.542 57.7391 123.542 57.1337V56.0386H123.156H122.77L122.795 58.5121Z" fill="black"/>
<path d="M127.047 58.512L127.085 60.9983L127.407 61.037C127.704 61.0756 127.884 60.8566 129.018 59.169L130.306 57.2753L130.345 59.169L130.383 61.0627H130.692H131.015V58.5507V56.0386H130.654C130.319 56.0386 130.151 56.2318 129.005 57.9323L127.73 59.8389L127.691 57.9323L127.652 56.0386H127.343H127.021L127.047 58.512Z" fill="black"/>
<path d="M134.879 58.5507V61.0627H135.24C135.549 61.0499 135.742 60.818 136.876 59.1304L138.164 57.2109L138.203 59.1433L138.241 61.0627H138.55H138.872V58.5507V56.0386H138.486C138.138 56.0386 137.996 56.1932 136.85 57.9194L135.587 59.8131L135.549 57.9194L135.51 56.0386H135.201H134.879V58.5507Z" fill="black"/>
<path d="M142.969 58.19C142.931 60.3156 142.931 60.3542 142.647 60.3929C142.39 60.4315 142.119 60.8695 142.261 61.0112C142.441 61.2044 143.162 61.0756 143.42 60.818C143.678 60.5603 143.704 60.3929 143.742 58.6151L143.781 56.6827H144.605H145.443L145.468 58.8341L145.507 60.9983L145.868 61.037L146.216 61.0756V58.5635V56.0386H144.605H142.995L142.969 58.19Z" fill="black"/>
<path d="M153.043 58.5636V61.0757L153.404 61.037L153.752 60.9984L153.791 58.847L153.816 56.6957L155.079 56.657C156.264 56.6184 156.328 56.6055 156.367 56.3221C156.406 56.0386 156.406 56.0386 154.731 56.0386H153.043V58.5636Z" fill="black"/>
<path d="M157.037 58.5636V61.0757L157.385 61.037C157.681 61.0113 157.952 60.6892 158.995 59.1433L160.245 57.2882L160.283 59.1433L160.322 60.9984H160.644H160.966L161.005 58.5121L161.031 56.0386H160.657C160.309 56.0386 160.155 56.2061 159.008 57.9066L157.746 59.7617L157.707 57.9066L157.668 56.0386H157.359H157.037V58.5636Z" fill="black"/>
<path d="M166.828 56.3607C166.828 56.6699 166.866 56.6828 167.601 56.6828H168.374L168.399 58.8341L168.438 60.9984L168.799 61.037L169.146 61.0757V58.8857V56.6828H169.984C170.795 56.6828 170.821 56.6699 170.821 56.3607V56.0386H168.824H166.828V56.3607Z" fill="black"/>
<path d="M171.594 58.5507V61.0627H171.955C172.29 61.0627 172.457 60.8695 173.63 59.0917L174.944 57.1336V59.0917V61.0627H175.266H175.588V58.5507V56.0386H175.227C174.892 56.0386 174.725 56.2318 173.578 57.9323L172.303 59.8389L172.264 57.9323L172.225 56.0386H171.916H171.594V58.5507Z" fill="black"/>
<path d="M176.773 58.5121L176.811 60.9984L177.172 61.037L177.52 61.0757V59.9163C177.52 58.9758 177.559 58.744 177.713 58.744C177.971 58.744 178.37 59.1948 178.963 60.1868C179.44 60.9984 179.517 61.0628 179.929 61.0628H180.38L180.084 60.5733C179.259 59.2335 178.911 58.744 178.718 58.628C178.512 58.5121 178.512 58.4863 178.705 58.2673C178.808 58.1385 179.053 57.7391 179.246 57.3655C179.504 56.8374 179.646 56.6957 179.929 56.657C180.187 56.6312 180.303 56.5411 180.328 56.3221C180.367 56.0773 180.316 56.0386 179.942 56.0386C179.324 56.0386 178.976 56.3349 178.538 57.2754C178.319 57.7262 178.1 58.0998 178.035 58.0998C177.971 58.0998 177.842 58.1385 177.726 58.1771C177.546 58.2415 177.52 58.0998 177.52 57.1465V56.0386H177.134H176.747L176.773 58.5121Z" fill="black"/>
<path d="M181.024 58.512L181.062 60.9983L181.41 61.037C181.719 61.0756 181.861 60.8953 183.021 59.1948L184.283 57.3011L184.322 59.1819L184.36 61.0627H184.67H184.992V58.5507V56.0386H184.644C184.322 56.0515 184.128 56.2705 183.059 57.8808L181.835 59.7101L181.797 57.8679L181.758 56.0386H181.385H180.998L181.024 58.512Z" fill="black"/>
<path d="M80.4826 35.6948L80.4762 41.7234L74.2998 35.7065L80.4826 35.6948Z" fill="#DD4400"/>
</svg>
