<svg width="36" height="38" viewBox="0 0 36 38" fill="none" xmlns="http://www.w3.org/2000/svg">
<rect x="0.25" width="35.625" height="37.8516" fill="#DD4400"/>
<path d="M26.4316 10.5238C25.4002 9.48198 24.1717 8.65594 22.8177 8.09387C21.4637 7.53181 20.0114 7.24496 18.5454 7.25007C12.4029 7.25007 7.39664 12.2563 7.39664 18.3988C7.39664 20.3676 7.91414 22.2801 8.88164 23.9676L7.30664 29.7501L13.2129 28.1976C14.8441 29.0863 16.6779 29.5588 18.5454 29.5588C24.6879 29.5588 29.6941 24.5526 29.6941 18.4101C29.6941 15.4288 28.5354 12.6276 26.4316 10.5238Z" fill="white"/>
<path d="M23.6305 20.7388C23.3492 20.6038 21.9767 19.9288 21.7292 19.8276C21.4705 19.7376 21.2905 19.6926 21.0992 19.9626C20.908 20.2438 20.3792 20.8738 20.2217 21.0538C20.0642 21.2451 19.8955 21.2676 19.6142 21.1213C19.333 20.9863 18.433 20.6826 17.3755 19.7376C16.543 18.9951 15.9917 18.0838 15.823 17.8026C15.6655 17.5213 15.8005 17.3751 15.9467 17.2288C16.0705 17.1051 16.228 16.9026 16.363 16.7451C16.498 16.5876 16.5542 16.4638 16.6442 16.2838C16.7342 16.0926 16.6892 15.9351 16.6217 15.8001C16.5542 15.6651 15.9917 14.2926 15.7667 13.7301C15.5417 13.1901 15.3055 13.2576 15.1367 13.2463H14.5967C14.4055 13.2463 14.113 13.3138 13.8542 13.5951C13.6067 13.8763 12.8867 14.5513 12.8867 15.9238C12.8867 17.2963 13.888 18.6238 14.023 18.8038C14.158 18.9951 15.9917 21.8076 18.7817 23.0113C19.4455 23.3038 19.963 23.4726 20.368 23.5963C21.0317 23.8101 21.6392 23.7763 22.123 23.7088C22.663 23.6301 23.7767 23.0338 24.0017 22.3813C24.238 21.7288 24.238 21.1776 24.1592 21.0538C24.0805 20.9301 23.9117 20.8738 23.6305 20.7388Z" fill="#DD4400"/>
</svg>
