<svg width="40" height="46" viewBox="0 0 40 46" fill="none" xmlns="http://www.w3.org/2000/svg">
<path id="Vector" fill-rule="evenodd" clip-rule="evenodd" d="M9.37054 10.3076C9.37054 4.62717 13.979 0 19.6407 0C25.3042 0 29.9126 4.62717 29.9108 10.3076C29.9108 15.9861 25.3042 20.6152 19.6407 20.6152C13.979 20.6152 9.37054 15.9861 9.37054 10.3076ZM28.0367 10.3076C28.0385 5.63545 24.2885 1.87411 19.6407 1.87411C14.9947 1.87411 11.2447 5.63545 11.2447 10.3076C11.2405 11.4131 11.4545 12.5086 11.8745 13.5312C12.2945 14.5539 12.9122 15.4836 13.6922 16.2671C14.4721 17.0505 15.3991 17.6724 16.4199 18.0969C17.4406 18.5214 18.5351 18.7404 19.6407 18.7411C24.2885 18.7411 28.0367 14.9779 28.0367 10.3076ZM0 36.5995C0 28.8013 6.28201 22.4893 14.0558 22.4893L25.3005 22.4874C33.0743 22.4874 39.3563 28.8013 39.3563 36.5995V45.0629C39.3563 45.3115 39.2576 45.5498 39.0818 45.7255C38.9061 45.9013 38.6678 46 38.4192 46H0.937054C0.688532 46 0.450189 45.9013 0.274457 45.7255C0.0987255 45.5498 0 45.3115 0 45.0629V36.5995ZM25.3005 24.3634H14.0558C7.29216 24.3634 1.87411 29.8021 1.87411 36.5995V44.1259H7.49644H29.9857H37.4822V36.5995C37.4822 29.8021 32.0641 24.3634 25.3005 24.3634Z" fill="#DD4400"/>
</svg>
