<svg width="46" height="46" viewBox="0 0 46 46" fill="none" xmlns="http://www.w3.org/2000/svg">
<g id="Group 1000005249">
<path id="Vector" fill-rule="evenodd" clip-rule="evenodd" d="M45.9616 31.3439C45.8019 30.7431 45.1892 30.3862 44.5931 30.5476L39.8557 31.8269L34.8928 13.1604C34.5262 11.7816 33.1151 10.9604 31.7465 11.3297L13.2251 16.3314L10.4857 6.02777C9.97163 4.09428 8.65898 2.65705 6.78939 1.98089L1.4951 0.0664564C0.914144 -0.143569 0.274437 0.160771 0.0659504 0.746082C-0.142443 1.33149 0.159439 1.9763 0.740296 2.18641L6.0345 4.10085C7.21084 4.52625 8.00353 5.39413 8.32692 6.61073L15.1778 32.3787C12.7157 33.4931 10.9958 35.9861 10.9958 38.8778C10.9958 42.805 14.166 46 18.0627 46C21.9594 46 25.1294 42.805 25.1294 38.8778C25.1294 38.6305 25.1168 38.3863 25.0922 38.1455L45.1714 32.7231C45.7676 32.5621 46.1214 31.9447 45.9616 31.3439ZM26.0137 21.1905L23.4293 21.8884L21.9457 16.3081L24.53 15.6102L26.0137 21.1905ZM18.0628 43.7476C15.3983 43.7476 13.2307 41.563 13.2307 38.8777C13.2307 36.1924 15.3983 34.0079 18.0628 34.0079C20.7271 34.0079 22.8947 36.1924 22.8947 38.8777C22.8947 41.563 20.7271 43.7476 18.0628 43.7476ZM18.0628 31.7557C17.8174 31.7557 17.575 31.7685 17.336 31.7933L13.8035 18.5069L19.787 16.8911L21.5598 23.559C21.6936 24.0622 22.1451 24.394 22.6385 24.394C22.7342 24.394 22.8315 24.3815 22.9284 24.3553L27.6714 23.0746C27.9576 22.9973 28.2017 22.8086 28.3498 22.5499C28.498 22.2913 28.5382 21.9839 28.4615 21.6954L26.6887 15.0273L32.325 13.5052C32.4997 13.4582 32.6875 13.567 32.7343 13.7433L37.6971 32.4098L24.5115 35.9706C23.4057 33.4892 20.9321 31.7557 18.0628 31.7557Z" fill="#DD4400"/>
<path id="Ellipse 160" d="M22 39C22 41.2091 20.2091 43 18 43C15.7909 43 14 41.2091 14 39C14 36.7909 15.7909 35 18 35C20.2091 35 22 36.7909 22 39ZM16.1872 39C16.1872 40.0012 16.9988 40.8128 18 40.8128C19.0012 40.8128 19.8128 40.0012 19.8128 39C19.8128 37.9988 19.0012 37.1872 18 37.1872C16.9988 37.1872 16.1872 37.9988 16.1872 39Z" fill="#DD4400"/>
</g>
</svg>
